<svg xmlns="http://www.w3.org/2000/svg" width="23" height="21" viewBox="0 0 23 21">
  <metadata><?xpacket begin="﻿" id="W5M0MpCehiHzreSzNTczkc9d"?>
<x:xmpmeta xmlns:x="adobe:ns:meta/" x:xmptk="Adobe XMP Core 5.6-c140 79.160451, 2017/05/06-01:08:21        ">
   <rdf:RDF xmlns:rdf="http://www.w3.org/1999/02/22-rdf-syntax-ns#">
      <rdf:Description rdf:about=""/>
   </rdf:RDF>
</x:xmpmeta>
                                                                                                    
                                                                                                    
                                                                                                    
                                                                                                    
                                                                                                    
                                                                                                    
                                                                                                    
                                                                                                    
                                                                                                    
                                                                                                    
                                                                                                    
                                                                                                    
                                                                                                    
                                                                                                    
                                                                                                    
                                                                                                    
                                                                                                    
                                                                                                    
                                                                                                    
                                                                                                    
                           
<?xpacket end="w"?></metadata>
<defs>
    <style>
      .cls-1 {
        fill: #26a3fd;
        fill-rule: evenodd;
      }
    </style>
  </defs>
  <path id="like" class="cls-1" d="M1415.67,474a6.761,6.761,0,0,1-10.35,0,6.227,6.227,0,0,0-6.32,6.311c0,4.361,3.91,7.918,9.89,13.2L1410.5,495l1.61-1.492c5.86-5.393,9.89-8.951,9.89-13.2A6.23,6.23,0,0,0,1415.67,474Zm-5.06,17.9h-0.11l-0.12-.115c-5.52-4.935-9.08-8.148-9.08-11.476a3.922,3.922,0,0,1,4.02-4.016,4.666,4.666,0,0,1,4.14,2.754h2.19a4.378,4.378,0,0,1,4.02-2.754,3.93,3.93,0,0,1,4.03,4.016C1419.7,483.639,1416.13,486.852,1410.61,491.9Z" transform="translate(-1399 -474)"/>
</svg>
