<svg xmlns="http://www.w3.org/2000/svg" width="27.37" height="23.968" viewBox="0 0 27.37 23.968">
  <metadata><?xpacket begin="﻿" id="W5M0MpCehiHzreSzNTczkc9d"?>
<x:xmpmeta xmlns:x="adobe:ns:meta/" x:xmptk="Adobe XMP Core 5.6-c140 79.160451, 2017/05/06-01:08:21        ">
   <rdf:RDF xmlns:rdf="http://www.w3.org/1999/02/22-rdf-syntax-ns#">
      <rdf:Description rdf:about=""/>
   </rdf:RDF>
</x:xmpmeta>
                                                                                                    
                                                                                                    
                                                                                                    
                                                                                                    
                                                                                                    
                                                                                                    
                                                                                                    
                                                                                                    
                                                                                                    
                                                                                                    
                                                                                                    
                                                                                                    
                                                                                                    
                                                                                                    
                                                                                                    
                                                                                                    
                                                                                                    
                                                                                                    
                                                                                                    
                                                                                                    
                           
<?xpacket end="w"?></metadata>
<defs>
    <style>
      .cls-1 {
        fill: #43434c;
        fill-rule: evenodd;
      }
    </style>
  </defs>
  <path id="move_forward" data-name="move forward" class="cls-1" d="M1162.37,757.141a0.541,0.541,0,0,1,.57.061l14.42,11.453a0.565,0.565,0,0,1,.2.421,0.559,0.559,0,0,1-.2.422l-14.42,11.456a0.561,0.561,0,0,1-.34.12l-0.23-.056a0.521,0.521,0,0,1-.3-0.485V757.627A0.528,0.528,0,0,1,1162.37,757.141Zm-11.9,0a0.537,0.537,0,0,1,.57.061l14.43,11.453a0.565,0.565,0,0,1,.2.421,0.559,0.559,0,0,1-.2.422l-14.43,11.456a0.556,0.556,0,0,1-.33.12l-0.24-.056a0.541,0.541,0,0,1-.3-0.486V757.627A0.546,0.546,0,0,1,1150.47,757.141Z" transform="translate(-1150.19 -757.094)"/>
</svg>
