<svg xmlns="http://www.w3.org/2000/svg" width="27.438" height="24" viewBox="0 0 27.438 24">
  <metadata><?xpacket begin="﻿" id="W5M0MpCehiHzreSzNTczkc9d"?>
<x:xmpmeta xmlns:x="adobe:ns:meta/" x:xmptk="Adobe XMP Core 5.6-c140 79.160451, 2017/05/06-01:08:21        ">
   <rdf:RDF xmlns:rdf="http://www.w3.org/1999/02/22-rdf-syntax-ns#">
      <rdf:Description rdf:about=""/>
   </rdf:RDF>
</x:xmpmeta>
                                                                                                    
                                                                                                    
                                                                                                    
                                                                                                    
                                                                                                    
                                                                                                    
                                                                                                    
                                                                                                    
                                                                                                    
                                                                                                    
                                                                                                    
                                                                                                    
                                                                                                    
                                                                                                    
                                                                                                    
                                                                                                    
                                                                                                    
                                                                                                    
                                                                                                    
                                                                                                    
                           
<?xpacket end="w"?></metadata>
<defs>
    <style>
      .cls-1 {
        fill: #43434c;
        fill-rule: evenodd;
      }
    </style>
  </defs>
  <path id="move_back" data-name="move back" class="cls-1" d="M956.881,757.061a0.538,0.538,0,0,0-.569.06l-14.45,11.454a0.534,0.534,0,0,0,0,.843l14.45,11.456a0.553,0.553,0,0,0,.333.12l0.236-.057a0.532,0.532,0,0,0,.3-0.484V757.546A0.546,0.546,0,0,0,956.881,757.061Zm11.917,0a0.541,0.541,0,0,0-.57.06l-14.451,11.454a0.537,0.537,0,0,0,0,.843l14.453,11.456a0.553,0.553,0,0,0,.334.12l0.235-.057a0.535,0.535,0,0,0,.3-0.485V757.546A0.54,0.54,0,0,0,968.8,757.061Z" transform="translate(-941.656 -757)"/>
</svg>
