<svg xmlns="http://www.w3.org/2000/svg" width="19.282" height="17.125" viewBox="0 0 19.282 17.125">
  <metadata><?xpacket begin="﻿" id="W5M0MpCehiHzreSzNTczkc9d"?>
<x:xmpmeta xmlns:x="adobe:ns:meta/" x:xmptk="Adobe XMP Core 5.6-c140 79.160451, 2017/05/06-01:08:21        ">
   <rdf:RDF xmlns:rdf="http://www.w3.org/1999/02/22-rdf-syntax-ns#">
      <rdf:Description rdf:about=""/>
   </rdf:RDF>
</x:xmpmeta>
                                                                                                    
                                                                                                    
                                                                                                    
                                                                                                    
                                                                                                    
                                                                                                    
                                                                                                    
                                                                                                    
                                                                                                    
                                                                                                    
                                                                                                    
                                                                                                    
                                                                                                    
                                                                                                    
                                                                                                    
                                                                                                    
                                                                                                    
                                                                                                    
                                                                                                    
                                                                                                    
                           
<?xpacket end="w"?></metadata>
<defs>
    <style>
      .cls-1 {
        fill: #1c1c1c;
        fill-rule: evenodd;
      }
    </style>
  </defs>
  <path id="repeat_icon" data-name="repeat icon" class="cls-1" d="M827.382,708.134l-4.818-3.67v2.447h-7.23a6.073,6.073,0,0,0-6.018,6.118,6.159,6.159,0,0,0,.687,2.839l1.97-1.5a3.722,3.722,0,0,1-.248-1.34,3.643,3.643,0,0,1,3.609-3.671h7.23v2.447Zm-1.453,3.553a3.712,3.712,0,0,1,.249,1.342,3.644,3.644,0,0,1-3.61,3.67h-7.23v-2.447l-4.818,3.671,4.818,3.67v-2.447h7.23a6.072,6.072,0,0,0,6.019-6.117,6.172,6.172,0,0,0-.687-2.84Z" transform="translate(-809.312 -704.469)"/>
</svg>
