<svg xmlns="http://www.w3.org/2000/svg" width="20.35" height="17.125" viewBox="0 0 20.35 17.125">
  <metadata><?xpacket begin="﻿" id="W5M0MpCehiHzreSzNTczkc9d"?>
<x:xmpmeta xmlns:x="adobe:ns:meta/" x:xmptk="Adobe XMP Core 5.6-c140 79.160451, 2017/05/06-01:08:21        ">
   <rdf:RDF xmlns:rdf="http://www.w3.org/1999/02/22-rdf-syntax-ns#">
      <rdf:Description rdf:about=""/>
   </rdf:RDF>
</x:xmpmeta>
                                                                                                    
                                                                                                    
                                                                                                    
                                                                                                    
                                                                                                    
                                                                                                    
                                                                                                    
                                                                                                    
                                                                                                    
                                                                                                    
                                                                                                    
                                                                                                    
                                                                                                    
                                                                                                    
                                                                                                    
                                                                                                    
                                                                                                    
                                                                                                    
                                                                                                    
                                                                                                    
                           
<?xpacket end="w"?></metadata>
<defs>
    <style>
      .cls-1 {
        fill: #1c1c1c;
        fill-rule: evenodd;
      }
    </style>
  </defs>
  <path id="shuffle" class="cls-1" d="M1310.65,717.1l-4.27,3.632v-2.422h-0.72a7.413,7.413,0,0,1-5.32-2.345c0.53-.621,1.02-1.246,1.46-1.832,0.11-.135.21-0.268,0.31-0.4a4.874,4.874,0,0,0,3.55,1.754h0.72v-2.019Zm-20.34-8.072h2.13a4.753,4.753,0,0,1,3.38,1.578c0.15-.2.32-0.416,0.48-0.628,0.4-.519.82-1.065,1.27-1.61a7.294,7.294,0,0,0-5.13-2.165h-2.13v2.825Zm16.07-5.435V706h-0.72c-3.75,0-5.87,2.762-7.74,5.2-1.68,2.189-3.13,4.083-5.48,4.083h-2.13v2.825h2.13c3.76,0,5.88-2.761,7.74-5.2,1.69-2.191,3.14-4.084,5.48-4.084h0.72v2.033l4.27-3.633Z" transform="translate(-1290.31 -703.594)"/>
</svg>
